<?xml version="1.0"?>
<svg xmlns="http://www.w3.org/2000/svg" xmlns:xlink="http://www.w3.org/1999/xlink" xmlns:svgjs="http://svgjs.com/svgjs" version="1.1" width="512" height="512" x="0" y="0" viewBox="0 0 512 512" style="enable-background:new 0 0 512 512" xml:space="preserve" class=""><g><path xmlns="http://www.w3.org/2000/svg" d="m512 256c0 141.386719-114.613281 256-256 256s-256-114.613281-256-256 114.613281-256 256-256 256 114.613281 256 256zm0 0" fill="#ffe86c" data-original="#a3d4ff" style="" class=""/><path xmlns="http://www.w3.org/2000/svg" d="m261.257812 511.933594c132.71875-2.675782 240.636719-106.339844 250.0625-237.292969l-236.140624-236.140625-65.179688 31.085938 49.558594 49.554687-84.925782 306.046875zm0 0" fill="#ffdf34" data-original="#65b1fc" style="" class=""/><path xmlns="http://www.w3.org/2000/svg" d="m268.351562 69.585938h-58.351562l-24.351562-31.085938h82.703124zm0 0" fill="#94572e" data-original="#94572e" style="" class=""/><path xmlns="http://www.w3.org/2000/svg" d="m285 217.5h-58l10-179h38zm0 0" fill="#a66235" data-original="#a66235" style=""/><path xmlns="http://www.w3.org/2000/svg" d="m275 38.5h-19.40625v179h29.40625zm0 0" fill="#854d28" data-original="#854d28" style="" class=""/><path xmlns="http://www.w3.org/2000/svg" d="m375.015625 335.105469c0 79.957031-53.285156 115.789062-119.015625 115.789062s-119.015625-35.832031-119.015625-115.789062 53.285156-179.984375 119.015625-179.984375 119.015625 100.027344 119.015625 179.984375zm0 0" fill="#d18a56" data-original="#d18a56" style="" class=""/><path xmlns="http://www.w3.org/2000/svg" d="m256 155.121094c-.136719 0-.269531.007812-.40625.011718v295.757813c.136719 0 .269531.003906.40625.003906 65.730469 0 119.015625-35.832031 119.015625-115.789062s-53.285156-179.984375-119.015625-179.984375zm0 0" fill="#b56d3c" data-original="#b56d3c" style="" class=""/><path xmlns="http://www.w3.org/2000/svg" d="m295.878906 258.5c0 22.023438-17.855468 39.878906-39.878906 39.878906s-39.878906-17.855468-39.878906-39.878906 17.855468-39.878906 39.878906-39.878906 39.878906 17.855468 39.878906 39.878906zm0 0" fill="#854d28" data-original="#854d28" style="" class=""/><path xmlns="http://www.w3.org/2000/svg" d="m256 218.621094c-.136719 0-.269531.011718-.40625.011718v79.734376c.136719 0 .269531.007812.40625.007812 22.023438 0 39.878906-17.851562 39.878906-39.875s-17.855468-39.878906-39.878906-39.878906zm0 0" fill="#5e331a" data-original="#5e331a" style="" class=""/><path xmlns="http://www.w3.org/2000/svg" d="m315.5 361.234375c0-14.503906-26.640625-26.261719-59.5-26.261719s-59.5 11.757813-59.5 26.261719c0 14.507813 26.640625 26.265625 59.5 26.265625s59.5-11.757812 59.5-26.265625zm0 0" fill="#94572e" data-original="#94572e" style="" class=""/><path xmlns="http://www.w3.org/2000/svg" d="m256 334.972656c-.136719 0-.269531.003906-.40625.003906v52.519532c.136719 0 .269531.003906.40625.003906 32.859375 0 59.5-11.757812 59.5-26.265625 0-14.503906-26.640625-26.261719-59.5-26.261719zm0 0" fill="#704021" data-original="#704021" style="" class=""/><path xmlns="http://www.w3.org/2000/svg" d="m342.53125 309c0-8.007812-10.996094-14.5-24.5625-14.5s-24.5625 6.492188-24.5625 14.5 10.996094 14.5 24.5625 14.5 24.5625-6.492188 24.5625-14.5zm0 0" fill="#5e331a" data-original="#5e331a" style="" class=""/><path xmlns="http://www.w3.org/2000/svg" d="m218.59375 309c0-8.007812-10.996094-14.5-24.5625-14.5s-24.5625 6.492188-24.5625 14.5 10.996094 14.5 24.5625 14.5 24.5625-6.492188 24.5625-14.5zm0 0" fill="#854d28" data-original="#854d28" style="" class=""/></g></svg>
