<svg id="Capa_1" enable-background="new 0 0 512 512" height="512" viewBox="0 0 512 512" width="512" xmlns="http://www.w3.org/2000/svg"><g><circle cx="256" cy="256" fill="#f3d652" r="256"/><path d="m510.778 281.052-160.052-160.052h-189.452l-66.91 240.58s148.664 148.669 149 149c.385.389.777.77 1.169 1.152 3.803.167 7.623.268 11.467.268 132.931 0 242.186-101.322 254.778-230.948z" fill="#e9bc3e"/><g><path d="m312.25 166h22.5v33.75h-22.5z" fill="#a9c7ef"/><path d="m177.25 166h22.5v33.75h-22.5z" fill="#bfdafe"/><path d="m222.25 166h22.5v33.75h-22.5z" fill="#bfdafe"/><path d="m267.25 166h22.5v33.75h-22.5z" fill="#a9c7ef"/><path d="m379.75 150.025v49.725h-22.5v-40.276l-15.975-15.974h-170.55l-15.975 15.974v40.276h-22.5v-49.725l29.025-29.025h189.45z" fill="#593f5b"/><path d="m379.75 150.025v49.725h-22.5v-40.276l-15.975-15.974h-85.275v-22.5h94.725z" fill="#452b47"/><path d="m346 188.5h-180c-55.8 0-102 45.449-102 101.25 0 55.8 46.2 101.25 102 101.25h180c55.8 0 102-45.45 102-101.25 0-55.801-46.2-101.25-102-101.25z" fill="#df6426"/><path d="m448 289.75c0 55.8-46.2 101.25-102 101.25h-90v-202.5h90c55.8 0 102 45.449 102 101.25z" fill="#ce3b0e"/><path d="m166 346c-31.014 0-56.25-25.236-56.25-56.25s25.236-56.25 56.25-56.25 56.25 25.236 56.25 56.25-25.236 56.25-56.25 56.25z" fill="#eff5ff"/><path d="m346 346c-31.014 0-56.25-25.236-56.25-56.25s25.236-56.25 56.25-56.25 56.25 25.236 56.25 56.25-25.236 56.25-56.25 56.25z" fill="#dae7fd"/><circle cx="166" cy="289.75" fill="#593f5b" r="33.75"/><circle cx="346" cy="289.75" fill="#452b47" r="33.75"/><path d="m154.75 278.5h22.5v22.5h-22.5z" fill="#eff5ff"/><path d="m244.75 233.5h22.5v112.5h-22.5z" fill="#593f5b"/><path d="m334.75 278.5h22.5v22.5h-22.5z" fill="#dae7fd"/><path d="m256 233.5h11.25v112.5h-11.25z" fill="#452b47"/></g></g></svg>