<svg id="Layer_1" enable-background="new 0 0 512 512" height="512" viewBox="0 0 512 512" width="512" xmlns="http://www.w3.org/2000/svg"><g><g><g><g id="XMLID_577_"><g id="XMLID_578_"><g id="XMLID_579_"><g id="XMLID_580_"><g id="XMLID_581_"><g id="XMLID_582_"><g id="XMLID_583_"><g id="XMLID_584_"><g id="XMLID_585_"><g id="XMLID_586_"><g id="XMLID_587_"><g id="XMLID_588_"><g id="XMLID_589_"><g id="XMLID_590_"><g id="XMLID_591_"><circle cx="256" cy="256" fill="#fcd144" r="256"/></g></g></g></g></g></g></g></g></g></g></g></g></g></g></g></g></g><path d="m512 256c0-40.237-9.294-78.3-25.835-112.176l-86.3-86.299-215.984 122.59-2.9 184.107-90.196 58.341 71.885 71.885c28.919 11.327 60.397 17.552 93.33 17.552 141.385 0 256-114.615 256-256z" fill="#f4b414"/><g><path d="m155.742 119.273v197.9c-6.992-2.677-14.576-4.157-22.51-4.157-34.793 0-62.999 28.205-62.999 62.999s28.206 62.999 62.999 62.999 62.999-28.206 62.999-62.999v-181.54l163.145-41.266v122.06c-6.992-2.677-14.576-4.157-22.509-4.157-34.793 0-62.999 28.205-62.999 62.999 0 34.793 28.205 62.998 62.999 62.998s62.999-28.205 62.999-62.998v-276.587z" fill="#655665"/><path d="m399.87 57.52v276.59c0 34.79-28.21 63-63 63-34.8 0-63-28.21-63-63s28.2-63 63-63c7.93 0 15.51 1.48 22.51 4.16v-122.06l-101.38 25.64v-85.45z" fill="#503f51"/></g></g></svg>