<svg id="Capa_1" enable-background="new 0 0 512 512" height="512" viewBox="0 0 512 512" width="512" xmlns="http://www.w3.org/2000/svg"><g><circle cx="256" cy="256" fill="#f6df5a" r="256"/><circle cx="256" cy="256" fill="#f6df5a" r="256"/><path d="m509.607 221.093-109.35-109.35-288.514 288.514 109.35 109.35c76.602 10.485 157.039-13.7 215.927-72.588 58.887-58.887 83.073-139.325 72.587-215.926z" fill="#edb943"/><g><g fill="#1c259d"><path d="m360.027 94.979h15v20.185h-15z" transform="matrix(.707 -.707 .707 .707 33.349 290.656)"/><path d="m343.245 108.932h15v20.185h-15z" transform="matrix(.707 -.707 .707 .707 18.567 282.876)"/><path d="m326.463 122.886h15v20.185h-15z" transform="matrix(.707 -.707 .707 .707 3.785 275.096)"/></g></g><g><g fill="#002659"><path d="m399.428 134.381h15v20.185h-15z" transform="matrix(.707 -.707 .707 .707 17.029 330.057)"/><path d="m385.475 151.163h15v20.185h-15z" transform="matrix(.707 -.707 .707 .707 1.075 325.106)"/><path d="m371.521 167.945h15v20.185h-15z" transform="matrix(.707 -.707 .707 .707 -14.879 320.155)"/></g></g><g><g><path d="m254.799 266.336-9.135-9.135c-4.416-4.416-4.416-11.577 0-15.993l94.277-94.277c4.416-4.416 11.577-4.416 15.993 0l9.135 9.135c4.416 4.416 4.416 11.577 0 15.993l-94.277 94.277c-4.416 4.417-11.576 4.417-15.993 0z" fill="#8e4813"/><path d="m357.766 192.147-37.913-37.913 64.676-58.219 31.456 31.456z" fill="#bb5f19"/><path d="m365.069 156.066-4.568-4.568-110.27 110.27 4.568 4.568c4.416 4.416 11.577 4.417 15.993 0l94.277-94.277c4.416-4.416 4.416-11.576 0-15.993z" fill="#62320d"/><path d="m415.985 127.471-15.728-15.728-61.448 61.448 18.957 18.956z" fill="#8e4813"/><path d="m223.46 401.565c8.994-10.629 13.457-23.785 13.558-37.191.078-10.399 6.445-19.451 16.125-22.694 9.46-3.169 18.163-8.772 25.165-16.846 20.14-23.222 18.415-59.63-3.912-83.627-25.108-26.986-66.056-28.901-90.265-4.691-6.348 6.348-10.896 13.848-13.667 21.911-3.37 9.806-12.267 16.476-22.834 16.554-13.407.1-26.566 4.563-37.196 13.558l-7.761 6.567c-28.062 23.747-28.357 67.724-.64 95.441l19.417 19.417c27.717 27.717 71.694 27.422 95.441-.64z" fill="#bb5f19"/><path d="m223.46 401.565c8.994-10.629 13.457-23.785 13.558-37.19.078-10.399 6.445-19.451 16.125-22.694 9.46-3.169 18.163-8.772 25.165-16.846 20.14-23.222 18.415-59.63-3.912-83.627-.582-.626-1.182-1.224-1.781-1.824l-160.872 160.873 9.709 9.709c27.717 27.717 71.694 27.422 95.441-.64z" fill="#8e4813"/><circle cx="206.67" cy="305.33" fill="#1c259d" r="29.15"/><path d="m227.283 325.942c11.384-11.384 11.384-29.84 0-41.224l-41.224 41.224c11.383 11.384 29.84 11.383 41.224 0z" fill="#002659"/></g><g><path d="m127.328 334.005h43.425v14.786h-43.425z" fill="#8e4813" transform="matrix(.707 .707 -.707 .707 285.058 -5.394)"/><path d="m154.409 357.853h36.959v14.786h-36.959z" fill="#62320d" transform="matrix(.707 .707 -.707 .707 308.906 -15.273)"/></g></g></g></svg>